<svg width="40" height="40" viewBox="0 0 40 40" xmlns="http://www.w3.org/2000/svg">
  <defs>
    <style>
      <![CDATA[
      /* ========== 設定値（ここを変更するだけで全体調整可能） ========== */
      svg {
        --base-color: #fafbff;           /* ベース背景色 */
        --primary-color: #667eea;        /* メインテクスチャ色 */
        --secondary-color: #4facfe;      /* サブテクスチャ色 */

        /* 透明度設定（0.001〜1.0で調整） */
        --pattern-opacity-1: 0.025;     /* 45度斜線の透明度 */
        --pattern-opacity-2: 0.02;      /* -45度斜線の透明度 */
        --noise-opacity: 0.12;          /* ノイズの透明度 */
        --dots-opacity: 0.015;          /* 点々の透明度 */

        /* サイズ設定 */
        --line-width: 0.3;              /* 線の太さ */
        --dot-size-small: 0.3;          /* 小さい点のサイズ */
        --dot-size-medium: 0.4;         /* 中くらい点のサイズ */
        --dot-size-large: 0.5;          /* 大きい点のサイズ */

        /* ノイズ設定 */
        --noise-frequency: 0.8;         /* ノイズの細かさ */
        --noise-octaves: 2;             /* ノイズの複雑さ */
      }

      .base-bg { fill: var(--base-color); }
      .pattern-1 { opacity: var(--pattern-opacity-1); stroke: var(--primary-color); stroke-width: var(--line-width); }
      .pattern-2 { opacity: var(--pattern-opacity-2); stroke: var(--secondary-color); stroke-width: var(--line-width); }
      .noise-layer { opacity: var(--noise-opacity); fill: var(--primary-color); }
      .dots-layer { opacity: var(--dots-opacity); }
      .dot-primary { fill: var(--primary-color); }
      .dot-secondary { fill: var(--secondary-color); }
      ]]>
    </style>

    <!-- 微細ノイズフィルター -->
    <filter id="seamlessNoise" x="0%" y="0%" width="100%" height="100%">
      <feTurbulence baseFrequency="0.8" numOctaves="2" result="noise" seed="5"/>
      <feColorMatrix in="noise" type="saturate" values="0"/>
      <feComponentTransfer>
        <feFuncA type="discrete" tableValues="0 .008 .015 .005 .012 .02"/>
      </feComponentTransfer>
    </filter>
  </defs>

  <!-- ベース背景 -->
  <rect width="40" height="40" class="base-bg"/>

  <!-- 45度斜線パターン（シームレス） -->
  <g class="pattern-1">
    <!-- 左上から右下への斜線 -->
    <line x1="0" y1="0" x2="8" y2="8"/>
    <line x1="8" y1="0" x2="16" y2="8"/>
    <line x1="16" y1="0" x2="24" y2="8"/>
    <line x1="24" y1="0" x2="32" y2="8"/>
    <line x1="32" y1="0" x2="40" y2="8"/>
    <!-- 境界を跨ぐ線（シームレス対応） -->
    <line x1="-8" y1="0" x2="0" y2="8"/>
    <line x1="40" y1="0" x2="48" y2="8"/>

    <line x1="0" y1="8" x2="8" y2="16"/>
    <line x1="8" y1="8" x2="16" y2="16"/>
    <line x1="16" y1="8" x2="24" y2="16"/>
    <line x1="24" y1="8" x2="32" y2="16"/>
    <line x1="32" y1="8" x2="40" y2="16"/>
    <line x1="-8" y1="8" x2="0" y2="16"/>
    <line x1="40" y1="8" x2="48" y2="16"/>

    <line x1="0" y1="16" x2="8" y2="24"/>
    <line x1="8" y1="16" x2="16" y2="24"/>
    <line x1="16" y1="16" x2="24" y2="24"/>
    <line x1="24" y1="16" x2="32" y2="24"/>
    <line x1="32" y1="16" x2="40" y2="24"/>
    <line x1="-8" y1="16" x2="0" y2="24"/>
    <line x1="40" y1="16" x2="48" y2="24"/>

    <line x1="0" y1="24" x2="8" y2="32"/>
    <line x1="8" y1="24" x2="16" y2="32"/>
    <line x1="16" y1="24" x2="24" y2="32"/>
    <line x1="24" y1="24" x2="32" y2="32"/>
    <line x1="32" y1="24" x2="40" y2="32"/>
    <line x1="-8" y1="24" x2="0" y2="32"/>
    <line x1="40" y1="24" x2="48" y2="32"/>

    <line x1="0" y1="32" x2="8" y2="40"/>
    <line x1="8" y1="32" x2="16" y2="40"/>
    <line x1="16" y1="32" x2="24" y2="40"/>
    <line x1="24" y1="32" x2="32" y2="40"/>
    <line x1="32" y1="32" x2="40" y2="40"/>
    <line x1="-8" y1="32" x2="0" y2="40"/>
    <line x1="40" y1="32" x2="48" y2="40"/>

    <!-- 縦方向の境界対応 -->
    <line x1="0" y1="-8" x2="8" y2="0"/>
    <line x1="8" y1="-8" x2="16" y2="0"/>
    <line x1="16" y1="-8" x2="24" y2="0"/>
    <line x1="24" y1="-8" x2="32" y2="0"/>
    <line x1="32" y1="-8" x2="40" y2="0"/>

    <line x1="0" y1="40" x2="8" y2="48"/>
    <line x1="8" y1="40" x2="16" y2="48"/>
    <line x1="16" y1="40" x2="24" y2="48"/>
    <line x1="24" y1="40" x2="32" y2="48"/>
    <line x1="32" y1="40" x2="40" y2="48"/>
  </g>

  <!-- -45度斜線パターン（シームレス） -->
  <g class="pattern-2">
    <!-- 右上から左下への斜線 -->
    <line x1="8" y1="0" x2="0" y2="8"/>
    <line x1="16" y1="0" x2="8" y2="8"/>
    <line x1="24" y1="0" x2="16" y2="8"/>
    <line x1="32" y1="0" x2="24" y2="8"/>
    <line x1="40" y1="0" x2="32" y2="8"/>
    <!-- 境界を跨ぐ線（シームレス対応） -->
    <line x1="48" y1="0" x2="40" y2="8"/>
    <line x1="0" y1="0" x2="-8" y2="8"/>

    <line x1="8" y1="8" x2="0" y2="16"/>
    <line x1="16" y1="8" x2="8" y2="16"/>
    <line x1="24" y1="8" x2="16" y2="16"/>
    <line x1="32" y1="8" x2="24" y2="16"/>
    <line x1="40" y1="8" x2="32" y2="16"/>
    <line x1="48" y1="8" x2="40" y2="16"/>
    <line x1="0" y1="8" x2="-8" y2="16"/>

    <line x1="8" y1="16" x2="0" y2="24"/>
    <line x1="16" y1="16" x2="8" y2="24"/>
    <line x1="24" y1="16" x2="16" y2="24"/>
    <line x1="32" y1="16" x2="24" y2="24"/>
    <line x1="40" y1="16" x2="32" y2="24"/>
    <line x1="48" y1="16" x2="40" y2="24"/>
    <line x1="0" y1="16" x2="-8" y2="24"/>

    <line x1="8" y1="24" x2="0" y2="32"/>
    <line x1="16" y1="24" x2="8" y2="32"/>
    <line x1="24" y1="24" x2="16" y2="32"/>
    <line x1="32" y1="24" x2="24" y2="32"/>
    <line x1="40" y1="24" x2="32" y2="32"/>
    <line x1="48" y1="24" x2="40" y2="32"/>
    <line x1="0" y1="24" x2="-8" y2="32"/>

    <line x1="8" y1="32" x2="0" y2="40"/>
    <line x1="16" y1="32" x2="8" y2="40"/>
    <line x1="24" y1="32" x2="16" y2="40"/>
    <line x1="32" y1="32" x2="24" y2="40"/>
    <line x1="40" y1="32" x2="32" y2="40"/>
    <line x1="48" y1="32" x2="40" y2="40"/>
    <line x1="0" y1="32" x2="-8" y2="40"/>

    <!-- 縦方向の境界対応 -->
    <line x1="8" y1="-8" x2="0" y2="0"/>
    <line x1="16" y1="-8" x2="8" y2="0"/>
    <line x1="24" y1="-8" x2="16" y2="0"/>
    <line x1="32" y1="-8" x2="24" y2="0"/>
    <line x1="40" y1="-8" x2="32" y2="0"/>

    <line x1="8" y1="40" x2="0" y2="48"/>
    <line x1="16" y1="40" x2="8" y2="48"/>
    <line x1="24" y1="40" x2="16" y2="48"/>
    <line x1="32" y1="40" x2="24" y2="48"/>
    <line x1="40" y1="40" x2="32" y2="48"/>
  </g>

  <!-- 微細ノイズオーバーレイ -->
  <rect width="40" height="40" class="noise-layer" filter="url(#seamlessNoise)"/>

  <!-- シームレス対応の点々 -->
  <g class="dots-layer">
    <!-- 内部の点 -->
    <circle cx="12" cy="8" r="var(--dot-size-small)" class="dot-primary"/>
    <circle cx="28" cy="15" r="var(--dot-size-medium)" class="dot-secondary"/>
    <circle cx="8" cy="25" r="var(--dot-size-small)" class="dot-primary"/>
    <circle cx="32" cy="32" r="var(--dot-size-medium)" class="dot-secondary"/>
    <circle cx="20" cy="30" r="var(--dot-size-small)" class="dot-primary"/>

    <!-- 境界に配置される点（シームレス対応） -->
    <circle cx="0" cy="10" r="var(--dot-size-small)" class="dot-secondary"/>
    <circle cx="40" cy="10" r="var(--dot-size-small)" class="dot-secondary"/>
    <circle cx="15" cy="0" r="var(--dot-size-small)" class="dot-primary"/>
    <circle cx="15" cy="40" r="var(--dot-size-small)" class="dot-primary"/>
  </g>
</svg>
